<svg viewBox="0 0 25 21" xmlns="http://www.w3.org/2000/svg" xmlns:xlink="http://www.w3.org/1999/xlink" width="25.000000" height="21.000000" fill="none" customFrame="#000000">
	<g id="жалюзи">
		<rect id="Rectangle 40" width="24.000000" height="2.000000" x="0.500000" y="0.500000" stroke="rgb(65,122,130)" stroke-width="1.000000" />
		<rect id="Rectangle 41" width="20.000000" height="3.000000" x="2.500000" y="5.500000" stroke="rgb(65,122,130)" stroke-width="1.000000" />
		<rect id="Rectangle 46" width="20.000000" height="3.000000" x="2.500000" y="8.500000" stroke="rgb(65,122,130)" stroke-width="1.000000" />
		<rect id="Rectangle 48" width="20.000000" height="3.000000" x="2.500000" y="11.500000" stroke="rgb(65,122,130)" stroke-width="1.000000" />
		<rect id="Rectangle 49" width="20.000000" height="3.000000" x="2.500000" y="14.500000" stroke="rgb(65,122,130)" stroke-width="1.000000" />
		<rect id="Rectangle 50" width="20.000000" height="3.000000" x="2.500000" y="17.500000" stroke="rgb(65,122,130)" stroke-width="1.000000" />
		<path id="Line 24" d="M0 6.45596e-08L4 0" stroke="rgb(65,122,130)" stroke-width="1.000000" transform="matrix(-1.62417e-08,1,-1,-2.94103e-08,4.5,2)" />
		<line id="Line 26" x1="0" x2="1" y1="0" y2="0" stroke="rgb(65,122,130)" stroke-width="1.000000" transform="matrix(-6.40346e-08,1,-1,2.59781e-08,4.5,6)" />
		<line id="Line 28" x1="0" x2="1" y1="0" y2="0" stroke="rgb(65,122,130)" stroke-width="1.000000" transform="matrix(-6.40346e-08,1,-1,2.59781e-08,4.5,9)" />
		<line id="Line 30" x1="0" x2="0.753768861" y1="0" y2="0" stroke="rgb(65,122,130)" stroke-width="1.000000" transform="matrix(-6.40346e-08,1,-1,2.59781e-08,4.5,11.0454)" />
		<line id="Line 32" x1="0" x2="0.753768861" y1="0" y2="0" stroke="rgb(65,122,130)" stroke-width="1.000000" transform="matrix(-5.97247e-08,1,-1,2.52392e-08,4.5,14.0605)" />
		<line id="Line 34" x1="0" x2="1" y1="0" y2="0" stroke="rgb(65,122,130)" stroke-width="1.000000" transform="matrix(-5.57464e-08,1,-1,2.45004e-08,4.5,18)" />
		<line id="Line 36" x1="0" x2="1" y1="0" y2="0" stroke="rgb(65,122,130)" stroke-width="1.000000" transform="matrix(-5.57464e-08,1,-1,2.45004e-08,4.5,15)" />
		<line id="Line 38" x1="0" x2="1" y1="0" y2="0" stroke="rgb(65,122,130)" stroke-width="1.000000" transform="matrix(-5.57464e-08,1,-1,2.45004e-08,4.5,12)" />
		<path id="Line 24" d="M0 1.76055e-07L3.5 -5.68461e-08" stroke="rgb(65,122,130)" stroke-width="1.000000" transform="matrix(-1.62417e-08,1,-1,-2.94103e-08,20.4999,2)" />
		<line id="Line 26" x1="0" x2="1" y1="0" y2="0" stroke="rgb(65,122,130)" stroke-width="1.000000" transform="matrix(-6.40346e-08,1,-1,2.59781e-08,20.4999,6)" />
		<line id="Line 28" x1="0" x2="1" y1="0" y2="0" stroke="rgb(65,122,130)" stroke-width="1.000000" transform="matrix(-6.40346e-08,1,-1,2.59781e-08,20.4999,9)" />
		<line id="Line 34" x1="0" x2="1" y1="0" y2="0" stroke="rgb(65,122,130)" stroke-width="1.000000" transform="matrix(-5.57464e-08,1,-1,2.45004e-08,20.4999,18)" />
		<line id="Line 36" x1="0" x2="1" y1="0" y2="0" stroke="rgb(65,122,130)" stroke-width="1.000000" transform="matrix(-5.57464e-08,1,-1,2.45004e-08,20.4999,15)" />
		<line id="Line 38" x1="0" x2="1" y1="0" y2="0" stroke="rgb(65,122,130)" stroke-width="1.000000" transform="matrix(-5.57464e-08,1,-1,2.45004e-08,20.4999,12)" />
	</g>
</svg>
